HIERARCHY
ROOT Hips
{
	OFFSET -222.377106 85.852226 44.453899
	CHANNELS 6 Xposition Yposition Zposition Zrotation Yrotation Xrotation 
	JOINT LeftUpLeg
	{
		OFFSET 0.103456 1.857826 10.548499
		CHANNELS 3 Zrotation Yrotation Xrotation
		JOINT LeftLeg
		{
			OFFSET 43.499996 -0.000023 -0.000006
			CHANNELS 3 Zrotation Yrotation Xrotation
			JOINT LeftFoot
			{
				OFFSET 42.372200 0.000015 -0.000002
				CHANNELS 3 Zrotation Yrotation Xrotation
				JOINT LeftToe
				{
					OFFSET 17.299997 -0.000001 -0.000006
					CHANNELS 3 Zrotation Yrotation Xrotation
					End Site
					{
						OFFSET 0.000000 0.000000 0.000000
					}
				}
			}
		}
	}
	JOINT RightUpLeg
	{
		OFFSET 0.103456 1.857830 -10.548502
		CHANNELS 3 Zrotation Yrotation Xrotation
		JOINT RightLeg
		{
			OFFSET 43.500038 -0.000023 0.000017
			CHANNELS 3 Zrotation Yrotation Xrotation
			JOINT RightFoot
			{
				OFFSET 42.372261 -0.000008 -0.000005
				CHANNELS 3 Zrotation Yrotation Xrotation
				JOINT RightToe
				{
					OFFSET 17.299994 -0.000005 0.000011
					CHANNELS 3 Zrotation Yrotation Xrotation
					End Site
					{
						OFFSET 0.000000 0.000000 0.000000
					}
				}
			}
		}
	}
	JOINT Spine
	{
		OFFSET 6.901970 -2.603732 -0.000003
		CHANNELS 3 Zrotation Yrotation Xrotation
		JOINT Spine1
		{
			OFFSET 12.588100 -0.000003 0.000008
			CHANNELS 3 Zrotation Yrotation Xrotation
			JOINT Spine2
			{
				OFFSET 12.343202 0.000005 -0.000010
				CHANNELS 3 Zrotation Yrotation Xrotation
				JOINT Neck
				{
					OFFSET 25.832899 -0.000006 0.000006
					CHANNELS 3 Zrotation Yrotation Xrotation
					JOINT Head
					{
						OFFSET 11.766598 0.000008 0.000002
						CHANNELS 3 Zrotation Yrotation Xrotation
						End Site
						{
							OFFSET 0.000000 0.000000 0.000000
						}
					}
				}
				JOINT LeftShoulder
				{
					OFFSET 19.745903 -1.480370 6.000103
					CHANNELS 3 Zrotation Yrotation Xrotation
					JOINT LeftArm
					{
						OFFSET 11.284132 -0.000008 -0.000018
						CHANNELS 3 Zrotation Yrotation Xrotation
						JOINT LeftForeArm
						{
							OFFSET 33.000053 0.000001 0.000027
							CHANNELS 3 Zrotation Yrotation Xrotation
							JOINT LeftHand
							{
								OFFSET 25.200003 0.000017 -0.000003
								CHANNELS 3 Zrotation Yrotation Xrotation
								End Site
								{
									OFFSET 0.000000 0.000000 0.000000
								}
							}
						}
					}
				}
				JOINT RightShoulder
				{
					OFFSET 19.746098 -1.480373 -6.000065
					CHANNELS 3 Zrotation Yrotation Xrotation
					JOINT RightArm
					{
						OFFSET 11.284152 -0.000018 -0.000010
						CHANNELS 3 Zrotation Yrotation Xrotation
						JOINT RightForeArm
						{
							OFFSET 33.000092 0.000018 0.000006
							CHANNELS 3 Zrotation Yrotation Xrotation
							JOINT RightHand
							{
								OFFSET 25.199759 0.000135 0.000423
								CHANNELS 3 Zrotation Yrotation Xrotation
								End Site
								{
									OFFSET 0.000000 0.000000 0.000000
								}
							}
						}
					}
				}
			}
		}
	}
}
MOTION
Frames: 9
Frame Time: 0.033333
-222.377106 85.852226 44.453899 87.602948 -8.854379 156.763701 144.171524 -1.759703 -173.613150 -23.263225 0.701661 9.138559 65.751984 -13.968384 -18.821122 21.454553 0.003095 0.000001 155.129784 11.948898 -178.712938 -51.315836 -7.132556 -1.801404 97.262447 2.516911 11.860679 21.454560 -0.003106 -0.000018 9.927631 0.158150 0.255444 9.843109 0.293948 0.523409 9.525016 0.297243 0.521633 -12.953882 -3.275129 8.204259 -9.734840 -7.780911 8.505539 173.126089 -73.073387 5.706670 -35.943468 39.105094 -29.447223 -84.424738 -7.764848 2.602266 5.833651 -9.219067 24.935081 156.373028 77.025560 -22.653065 -33.934695 -27.763472 12.199884 -85.054706 6.239380 -2.563378 -1.040391 17.017430 -13.247274 
-225.187302 85.476486 44.323978 86.692722 -9.855460 160.040895 142.577644 -0.794800 -174.393048 -24.824191 0.584389 6.227870 70.423881 -10.412967 -17.357872 21.454553 0.003096 0.000001 151.957994 12.599898 -179.408360 -53.733351 -5.853930 -0.236727 97.414180 1.416531 11.919092 21.454562 -0.003102 -0.000018 10.075172 0.207715 0.041165 10.137706 0.410968 0.100372 9.819605 0.411704 0.097895 -13.869605 -3.781473 7.779291 -10.321847 -7.965225 7.896972 170.064880 -72.830860 8.857751 -37.950129 38.664997 -34.524253 -92.002901 -3.517677 2.640016 4.962069 -8.976438 24.689949 153.002685 77.522265 -26.050543 -35.628056 -24.815402 17.161458 -88.927198 4.408925 -2.607281 -1.459710 16.631931 -13.323882 
-227.917297 85.055283 44.060650 86.003215 -10.390111 162.996509 141.294826 -0.432206 -177.134618 -29.468284 1.557559 4.601405 73.853347 -7.279663 -12.903592 21.454555 0.003089 -0.000000 149.163572 13.338308 -178.623326 -55.779587 -5.523395 0.552623 97.210879 0.883250 11.781524 21.454565 -0.003101 -0.000019 10.305472 0.353142 -0.191081 10.597225 0.722242 -0.349005 10.279102 0.720255 -0.353351 -14.945666 -3.889649 7.443924 -10.575177 -8.451616 7.649535 167.238889 -72.136312 11.786606 -39.989108 37.625955 -37.949043 -98.496881 -0.628584 2.727022 4.666740 -8.826040 23.933664 151.277366 78.065490 -27.769167 -37.724839 -21.514751 22.056785 -92.446084 2.562311 -2.635355 -1.704879 16.169981 -13.281340 
-230.369995 84.611977 43.713928 85.652915 -10.608060 165.118703 140.909944 -0.724898 -179.714039 -35.924401 2.702228 2.510325 77.218827 -4.795940 -10.730838 21.454553 0.003097 0.000000 147.205384 14.146103 -176.880248 -56.803798 -5.816715 0.717271 97.475733 0.719663 11.399630 21.454562 -0.003103 -0.000019 10.581879 0.469597 -0.322595 11.148741 0.968042 -0.598419 10.830627 0.964539 -0.604245 -15.595403 -3.667400 7.020671 -11.316591 -8.999024 7.605067 164.971799 -72.203637 14.111346 -42.695584 37.121897 -39.900111 -103.618286 0.214642 2.895123 4.180684 -8.495784 22.614756 149.370609 78.753597 -29.659526 -39.803556 -18.729656 26.403319 -95.585465 1.401529 -2.694869 -1.644178 15.695081 -12.583312 
-232.661697 84.131607 43.255009 85.124962 -10.819610 166.392301 140.780881 -1.925599 177.729432 -43.185538 4.006428 1.136382 80.174454 -3.383424 -9.996337 21.454555 0.003093 0.000000 144.833150 14.694197 -175.534181 -57.823418 -6.471655 0.477183 97.602167 0.879514 11.299594 21.454560 -0.003106 -0.000018 10.753748 0.519769 -0.319866 11.492379 1.068681 -0.586494 11.174241 1.065256 -0.592929 -16.177969 -3.469101 6.744754 -11.827209 -9.525268 7.667026 163.043009 -72.433227 16.079585 -45.610883 36.563785 -41.816887 -107.631207 0.817093 3.029191 3.862901 -8.194020 20.808668 147.060653 79.318755 -31.962287 -41.604048 -16.321364 29.981795 -98.308320 0.990485 -2.788154 -1.482494 15.225899 -11.930885 
-234.885803 83.573051 42.658989 84.625948 -11.232610 167.035090 141.176295 -3.297196 177.049227 -50.359702 4.976228 0.203740 82.777569 -2.216111 -8.588209 21.454550 0.003094 -0.000001 141.671073 15.347792 -175.825626 -59.643568 -6.331857 0.388887 96.960204 0.994941 11.227511 21.454562 -0.003105 -0.000018 10.872274 0.502143 -0.282216 11.729912 1.030251 -0.512039 11.411773 1.027271 -0.518241 -16.331735 -3.680027 6.733009 -12.569269 -9.788827 7.703279 161.634965 -72.240937 17.532925 -47.940203 35.668966 -43.362433 -111.025292 1.275419 3.144272 3.594633 -8.113808 18.874727 143.342516 79.765859 -35.693059 -43.262872 -14.446159 33.492396 -100.630202 0.624661 -2.866455 -1.551769 14.659912 -11.523519 
-236.891800 83.006340 41.967548 84.538727 -11.500850 167.596996 142.803300 -4.617601 178.414418 -56.532987 4.701119 -0.913132 84.446273 -1.248252 -8.250299 21.454557 0.003092 -0.000000 139.239403 16.360308 -175.673408 -61.092668 -6.188805 -0.117602 96.472331 1.381179 11.212114 21.454562 -0.003105 -0.000017 11.056002 0.490932 -0.332489 12.096949 1.013877 -0.611787 11.778809 1.010303 -0.617891 -16.529573 -3.831360 6.974040 -13.111755 -10.056691 7.990641 161.246614 -72.144802 17.935995 -49.908360 34.820981 -45.097922 -114.114006 1.772338 3.241555 3.574717 -7.728708 16.550296 137.888856 80.037051 -41.182571 -44.875145 -12.992344 36.739099 -102.714406 0.295608 -2.936415 -1.464548 14.502008 -11.280349 
-238.726700 82.420517 41.210468 84.262316 -11.541469 168.577388 144.839830 -6.185103 -179.931662 -61.376988 4.045548 -1.464864 85.872615 -0.723858 -8.069974 21.454555 0.003091 0.000002 137.281133 17.497299 -175.107663 -62.056408 -6.065967 -0.687168 96.451335 1.775676 11.318059 21.454560 -0.003105 -0.000017 11.148059 0.545804 -0.423590 12.279990 1.133430 -0.786816 11.961861 1.128798 -0.793638 -16.589426 -4.123452 7.162277 -13.586783 -10.103039 8.067979 160.169616 -72.028470 19.046394 -51.253979 34.164326 -46.595206 -116.782902 2.161415 3.326612 3.615871 -7.574792 15.284534 133.574649 80.305819 -45.513963 -46.318856 -12.102080 39.593538 -104.721191 -0.039186 -3.002173 -1.471724 13.977540 -11.078061 
-240.490494 81.757629 40.378201 83.759942 -11.573631 169.691802 146.914856 -7.969407 -179.171298 -65.006865 3.871501 -1.476184 86.520861 -0.568399 -7.498470 21.454553 0.003092 0.000001 135.347794 18.565597 -175.032941 -62.837911 -5.790064 -1.078747 97.032727 2.035961 11.941174 21.454560 -0.003105 -0.000018 11.142567 0.576805 -0.496359 12.268057 1.202949 -0.928723 11.949926 1.197457 -0.935961 -16.713872 -4.128767 7.114015 -13.849733 -10.309630 8.119781 159.384322 -72.103315 19.847514 -52.594704 33.736230 -47.775848 -118.882899 2.329521 3.401698 3.520888 -7.320328 13.696519 132.473732 80.333215 -46.621485 -47.416560 -11.426534 41.622893 -106.499206 -0.266876 -3.064849 -1.686331 13.574692 -11.416668 
